<?xml version="1.0" encoding="UTF-8"?>
<svg id="Layer_2" data-name="Layer 2" xmlns="http://www.w3.org/2000/svg" viewBox="0 0 4139.04 5000">
  <defs>
    <style>
      .cls-1 {
        fill: #424242;
      }

      .cls-1, .cls-2, .cls-3, .cls-4 {
        stroke-width: 0px;
      }

      .cls-2 {
        fill: #262626;
      }

      .cls-3 {
        fill: #fff;
      }

      .cls-4 {
        fill: #090909;
      }
    </style>
  </defs>
  <g id="_3D_Hand_Pixel_Art_Icon_Sticker" data-name="3D Hand Pixel Art Icon Sticker">
    <g id="You_Rock_Hand_devil_horns_3D_pixel_icon" data-name="You Rock Hand devil horns 3D pixel icon">
      <polygon class="cls-4" points="2152.92 1786.04 2232.62 1553.95 2666.43 1685.93 2985.21 757.36 3202.27 823.19 2564.54 2681.04 2998.82 2813.57 3636.66 954.93 3853.98 1020.84 3136.32 3112.35 1617.33 2648.4 1936.16 1720.04 2152.92 1786.04 2152.92 1786.04"/>
      <polygon class="cls-4" points="2015.85 1488 1936.16 1720.04 1502.9 1588.13 1184.13 2516.09 967.65 2449.97 1684.68 362.95 1901.22 428.62 1582.58 1356.19 2015.85 1488 2015.85 1488"/>
      <polygon class="cls-4" points="1617.33 2648.4 1457.87 3112.7 1241.24 3046.43 1320.97 2814.32 1104.41 2748.13 1184.13 2516.09 1617.33 2648.4 1617.33 2648.4"/>
      <polygon class="cls-4" points="1251.88 231.69 216.18 3245.49 0 3179.25 1035.61 166.1 1251.88 231.69 1251.88 231.69"/>
      <polygon class="cls-4" points="2143.42 4606.79 2063.62 4839.31 329.84 4306.43 409.59 4074.3 2143.42 4606.79 2143.42 4606.79"/>
      <polygon class="cls-3" points="1936.16 1720.04 1617.33 2648.4 1184.13 2516.09 1502.9 1588.13 1936.16 1720.04 1936.16 1720.04"/>
      <polygon class="cls-3" points="2586.71 1918.12 2347.54 2614.81 1913.79 2482.43 2152.92 1786.04 2586.71 1918.12 2586.71 1918.12"/>
      <polygon class="cls-2" points="3639.7 3342.14 3321.1 4270.94 3034.51 4109 3353.67 3178.74 3639.7 3342.14 3639.7 3342.14"/>
      <polygon class="cls-4" points="3353.67 3178.74 3034.51 4109 2817.19 4042.42 3136.32 3112.35 3353.67 3178.74 3353.67 3178.74"/>
      <polygon class="cls-4" points="2108.3 3311.67 2028.54 3544 1378.14 3344.88 1457.87 3112.7 2108.3 3311.67 2108.3 3311.67"/>
      <polygon class="cls-4" points="216.18 3245.49 432.45 3311.75 272.99 3775.81 56.74 3709.45 216.18 3245.49 216.18 3245.49"/>
      <polygon class="cls-2" points="3104.06 4204.43 2944.73 4668.85 2657.58 4507.57 2817.19 4042.42 3104.06 4204.43 3104.06 4204.43"/>
      <path class="cls-1" d="M2944.73,4668.85c-78.7-24.16-162.7-42.05-236.74-77.71-91.6-44.11-178.94-100.44-267.63-150.22,78.78,24.18,162.9,42.07,237.01,77.78,91.51,44.08,178.76,100.4,267.36,150.16h0Z"/>
      <polygon class="cls-4" points="2657.58 4507.57 2440.36 4440.91 2599.95 3975.86 2817.19 4042.42 2657.58 4507.57 2657.58 4507.57"/>
      <polygon class="cls-4" points="3716.35 722.69 3636.66 954.93 3202.27 823.19 3281.95 591.05 3716.35 722.69 3716.35 722.69"/>
      <polygon class="cls-4" points="1764.32 131.16 1684.68 362.95 1251.88 231.69 1331.5 0 1764.32 131.16 1764.32 131.16"/>
      <polygon class="cls-2" points="2727.81 4602.26 2648.14 4834.45 2360.55 4673.47 2440.36 4440.91 2727.81 4602.26 2727.81 4602.26"/>
      <polygon class="cls-4" points="2223.22 4374.28 2440.36 4440.91 2360.55 4673.47 2143.42 4606.79 2223.22 4374.28 2223.22 4374.28"/>
      <polygon class="cls-4" points="489.33 3842.2 409.59 4074.3 193.26 4007.86 272.99 3775.81 489.33 3842.2 489.33 3842.2"/>
      <polygon class="cls-1" points="0 3179.25 216.18 3245.49 199.43 3294.22 0 3179.25"/>
      <polygon class="cls-1" points="56.74 3709.45 272.99 3775.81 255.92 3823.67 56.74 3709.45"/>
      <polygon class="cls-1" points="193.26 4007.86 409.59 4074.3 393.24 4121.91 193.26 4007.86"/>
      <polygon class="cls-1" points="329.84 4306.43 2063.62 4839.31 2351.64 5000 620.17 4467.71 329.84 4306.43"/>
      <polygon class="cls-2" points="2063.62 4839.31 2143.42 4606.79 2431.3 4767.84 2351.64 5000 2063.62 4839.31"/>
      <polygon class="cls-1" points="2143.42 4606.79 2360.55 4673.47 2648.14 4834.45 2431.3 4767.84 2143.42 4606.79"/>
      <polygon class="cls-1" points="2817.19 4042.42 3034.51 4109 3321.1 4270.94 3104.06 4204.43 2817.19 4042.42"/>
      <polygon class="cls-2" points="3853.98 1020.84 4139.04 1187.61 3440.1 3224.92 3353.67 3178.74 3136.32 3112.35 3853.98 1020.84"/>
      <polygon class="cls-2" points="3716.35 722.69 4001.56 889.9 3939.47 1070.86 3853.98 1020.84 3636.66 954.93 3716.35 722.69"/>
      <polygon class="cls-2" points="1901.22 428.62 2188.88 596.03 1895.14 1451.28 1582.58 1356.19 1901.22 428.62"/>
      <polygon class="cls-2" points="1684.68 362.95 1764.32 131.16 2052.13 299.01 1990.14 479.49 1901.22 428.62 1684.68 362.95"/>
      <polygon class="cls-2" points="2015.85 1488 2215.71 1603.21 2152.92 1786.04 1936.16 1720.04 2015.85 1488"/>
      <polygon class="cls-3" points="3202.27 823.19 3636.66 954.93 2998.82 2813.57 2564.54 2681.04 3202.27 823.19"/>
      <polygon class="cls-3" points="1251.88 231.69 1684.68 362.95 967.65 2449.97 1184.13 2516.09 1104.41 2748.13 1320.97 2814.32 1241.24 3046.43 1457.87 3112.7 1378.14 3344.88 2028.54 3544 2108.3 3311.67 1457.87 3112.7 1617.33 2648.4 3136.32 3112.35 2817.19 4042.42 2599.95 3975.86 2440.36 4440.91 2223.22 4374.28 2143.42 4606.79 409.59 4074.3 489.33 3842.2 272.99 3775.81 432.45 3311.75 216.18 3245.49 1251.88 231.69"/>
    </g>
  </g>
</svg>